<svg xmlns="http://www.w3.org/2000/svg" viewBox="0 0 40 40" fill="none">
  <defs>
    <linearGradient id="gradient" x1="0%" y1="0%" x2="100%" y2="100%">
      <stop offset="0%" style="stop-color:#4A90E2"/>
      <stop offset="100%" style="stop-color:#7BC8A4"/>
    </linearGradient>
  </defs>
  <rect width="40" height="40" rx="10" fill="url(#gradient)"/>
  <path d="M20 8C20 8 16 12 16 16C16 20 20 24 20 24C20 24 24 20 24 16C24 12 20 8 20 8Z" fill="white" opacity="0.9"/>
  <path d="M12 14C12 14 8 18 8 22C8 26 12 30 12 30C12 30 16 26 16 22C16 18 12 14 12 14Z" fill="white" opacity="0.7"/>
  <path d="M28 14C28 14 24 18 24 22C24 26 28 30 28 30C28 30 32 26 32 22C32 18 28 14 28 14Z" fill="white" opacity="0.7"/>
  <circle cx="20" cy="32" r="3" fill="white"/>
</svg>
